<svg xmlns="http://www.w3.org/2000/svg" viewBox="0 0 1100 500" font-family="ui-monospace, SFMono-Regular, Menlo, Consolas, monospace" font-size="14">
  <defs>
    <linearGradient id="accentline" x1="0" y1="0" x2="1" y2="0">
      <stop offset="0" stop-color="#6fb7d9" stop-opacity="0.9"/>
      <stop offset="1" stop-color="#6fb7d9" stop-opacity="0.1"/>
    </linearGradient>
  </defs>

  <rect width="1100" height="500" rx="14" fill="#0d1117"/>
  <rect x="1.5" y="1.5" width="1097" height="497" rx="13" fill="none" stroke="#30363d" stroke-width="3"/>
  <rect x="0" y="492" width="1100" height="4" fill="url(#accentline)" opacity="0.9"/>

  <circle cx="28" cy="26" r="6" fill="#ff5f57"/>
  <circle cx="50" cy="26" r="6" fill="#febc2e"/>
  <circle cx="72" cy="26" r="6" fill="#28c840"/>

  <g stroke="#6fb7d9" fill="none" stroke-width="1.6" stroke-linecap="round">
    <rect x="101" y="15.5" width="20" height="17" rx="6"/>
    <line x1="111" y1="15.5" x2="111" y2="11.5"/>
  </g>
  <circle cx="111" cy="10" r="1.6" fill="#6fb7d9"/>
  <circle cx="106.8" cy="22" r="1.7" fill="#6fb7d9"/>
  <circle cx="115.2" cy="22" r="1.7" fill="#6fb7d9"/>
  <path d="M107 27 Q111 30 115 27" stroke="#6fb7d9" stroke-width="1.6" fill="none" stroke-linecap="round"/>

  <text x="550" y="31" text-anchor="middle" font-size="13" fill="#8b949e">the acp catalogue in this monorepo — five execution engines, 32 in code, 40 published</text>

  <!-- engines -->
  <rect x="40" y="84" width="640" height="300" rx="12" fill="#161b22" stroke="#30363d" stroke-width="1.5"/>
  <text x="64" y="114" font-size="14" font-weight="700" fill="#6fb7d9">Execution engines</text>
  <text x="64" y="136" font-size="11" fill="#566070">execution_engine.py routes every offering_id to a method</text>

  <text x="64" y="171" font-size="12" fill="#c9d1d9">1 · Research &amp; Data</text>
  <rect x="228" y="158" width="204" height="16" rx="4" fill="#6fb7d9" opacity="0.72"/>
  <text x="446" y="171" font-size="12" fill="#8b949e">6</text>

  <text x="64" y="207" font-size="12" fill="#c9d1d9">2 · Code &amp; Dev</text>
  <rect x="228" y="194" width="340" height="16" rx="4" fill="#6fb7d9"/>
  <text x="582" y="207" font-size="12" fill="#8b949e">10</text>

  <text x="64" y="243" font-size="12" fill="#c9d1d9">3 · Wallet &amp; Crypto</text>
  <rect x="228" y="230" width="204" height="16" rx="4" fill="#6fb7d9" opacity="0.72"/>
  <text x="446" y="243" font-size="12" fill="#8b949e">6</text>

  <text x="64" y="279" font-size="12" fill="#c9d1d9">4 · Content &amp; Social</text>
  <rect x="228" y="266" width="136" height="16" rx="4" fill="#6fb7d9" opacity="0.5"/>
  <text x="378" y="279" font-size="12" fill="#8b949e">4</text>

  <text x="64" y="315" font-size="12" fill="#c9d1d9">5 · Agent Platform</text>
  <rect x="228" y="302" width="204" height="16" rx="4" fill="#6fb7d9" opacity="0.72"/>
  <text x="446" y="315" font-size="12" fill="#8b949e">6</text>

  <text x="64" y="356" font-size="11" fill="#566070">offerings per engine, counted from the categories in skills/acp_skill.py</text>

  <!-- catalogue -->
  <rect x="696" y="84" width="364" height="300" rx="12" fill="#161b22" stroke="#30363d" stroke-width="1.5"/>
  <text x="720" y="114" font-size="14" font-weight="700" fill="#b18bf5">Published catalogue</text>
  <text x="720" y="136" font-size="11" fill="#566070">infra/offerings/published_offerings.json</text>

  <text x="720" y="190" font-size="44" font-weight="700" fill="#e6edf3">40</text>
  <text x="790" y="190" font-size="13" fill="#8b949e">live offerings</text>

  <text x="720" y="228" font-size="12" fill="#c9d1d9">price tiers · USDC</text>

  <text x="720" y="256" font-size="12" fill="#e6edf3">$0.01</text>
  <rect x="792" y="245" width="88" height="14" rx="4" fill="#6fb7d9" opacity="0.55"/>
  <text x="892" y="256" font-size="12" fill="#8b949e">11</text>

  <text x="720" y="284" font-size="12" fill="#e6edf3">$0.05</text>
  <rect x="792" y="273" width="208" height="14" rx="4" fill="#6fb7d9"/>
  <text x="1012" y="284" font-size="12" fill="#8b949e">26</text>

  <text x="720" y="312" font-size="12" fill="#e6edf3">$0.10</text>
  <rect x="792" y="301" width="24" height="14" rx="4" fill="#6fb7d9" opacity="0.4"/>
  <text x="828" y="312" font-size="12" fill="#8b949e">3</text>

  <text x="720" y="348" font-size="11" fill="#566070">SLA window 30 to 240 min · each entry</text>
  <text x="720" y="366" font-size="11" fill="#566070">carries its own acp_id</text>

  <rect x="40" y="398" width="1020" height="42" rx="10" fill="#161b22" stroke="#6fb7d9" stroke-width="1.5" stroke-opacity="0.4"/>
  <circle cx="64" cy="419" r="4" fill="#6fb7d9"/>
  <text x="82" y="424" font-size="12" fill="#c9d1d9">as a client, MATRIX matches offerings in: code · bug · sql · regex · test · scaffold · defi · build</text>

  <text x="550" y="466" text-anchor="middle" font-size="13" fill="#8b949e">one engine, many SKUs — build the capability once, sell quick, standard and deep tiers</text>
</svg>
